# xmcd
#
# Track frame offsets:
#	150
#	15917
#	28467
#	44455
#	59217
#	71080
#	83637
#	102050
#	118197
#	135915
#	147792
#	160715
#	171447
#	182922
#
# Disc length: 2588 seconds
#
# Revision: 1
# Processed by: cddbd v1.5.1PL2 Copyright (c) Steve Scherf et al.
# Submitted via: audiograbber 1.82.01
#
DISCID=c20a1a0e
DTITLE=Carl P. Grun - Looking Back (Anthology 1975-1982)
DYEAR=1992
DGENRE=Country
TTITLE0=Midnight Train (1975)
TTITLE1=Sugar In My Coffee (1975)
TTITLE2=Good Boys Go To Heaven (1976)
TTITLE3=Carl P. Grun Is My Name (1977)
TTITLE4=Cathleen (1977)
TTITLE5=25 Hours From Tulsa (1978)
TTITLE6=Sugar For The Girls (1979)
TTITLE7=Stay At Home (1979)
TTITLE8=Long Is Ther Way To Tennessee (1979)
TTITLE9=Katie Come To Town (1979)
TTITLE10=Road Of Hate (1980)
TTITLE11=Starcrash (1981)
TTITLE12=Millsoup Millie (1982)
TTITLE13=Words Of Love (1982)
EXTD=
EXTT0=
EXTT1=
EXTT2=
EXTT3=
EXTT4=
EXTT5=
EXTT6=
EXTT7=
EXTT8=
EXTT9=
EXTT10=
EXTT11=
EXTT12=
EXTT13=
PLAYORDER=
